<svg xmlns="http://www.w3.org/2000/svg" id="Layer_1" width="100" height="100" viewBox="0 0 100 100"><g id="g5" transform="translate(18 18)"><g id="g4788" transform="translate(0 9)"><g id="g4577"><path id="rect9" fill="#fdd3b0" d="m 29,37.5 0,44 16,0 0,-23 c 0,-2.761 2.239,-5 5,-5 2.761,0 5,2.239 5,5 l 0,23 16,0 0,-44 -42,0 z" transform="translate(-18 -18)"/><g id="g11"><rect id="rect13" width="32" height="9" x="16" y="7.5" fill="#fed9b3"/></g><g id="g15"><path id="path17" fill="#f0b895" d="m 37.5,12 -11,0 C 26.224,12 26,12.224 26,12.5 l 0,2 c 0,0.276 0.224,0.5 0.5,0.5 l 1,0 c 0.276,0 0.5,0.224 0.5,0.5 l 0,0 c 0,0.276 0.224,0.5 0.5,0.5 l 7,0 c 0.276,0 0.5,-0.224 0.5,-0.5 l 0,0 C 36,15.224 36.224,15 36.5,15 l 1,0 c 0.276,0 0.5,-0.224 0.5,-0.5 l 0,-2 C 38,12.224 37.776,12 37.5,12 Z"/></g><g id="g19"><circle id="circle21" cx="22" cy="14.02" r="2" fill="#f0b895"/></g><g id="g23"><circle id="circle25" cx="42" cy="14.02" r="2" fill="#f0b895"/></g><g id="g27"><rect id="rect29" width="20" height="2" x="22" y="5.5" fill="#fed9b3"/></g><g id="g31"><rect id="rect33" width="38" height="3" x="13" y="16.5" fill="#fed9b3"/></g><g id="g35"><rect id="rect37" width="2" height="44" x="51" y="19.5" fill="#fcf2e8"/></g><g id="g39"><rect id="rect41" width="8" height="2" x="28" y=".5" fill="#fed9b3"/></g><g id="g43"><rect id="rect45" width="2" height="34" x="21" y="29.5" fill="#fcf2e8"/></g><g id="g47"><rect id="rect49" width="12" height="1.5" x="11" y="29.5" fill="#f0b895"/></g><path id="rect53" fill="#f0b895" d="m 40.875,50.5 0,31 4.125,0 0,-23 c 0,-2.761 2.239,-5 5,-5 2.761,0 5,2.239 5,5 l 0,23 4.125,0 0,-31 -18.25,0 z" transform="translate(-18 -18)"/><g id="g55"><rect id="rect57" width="12" height="1.5" x="41" y="29.5" fill="#f0b895"/></g><g id="g59"><path id="path61" fill="#bc856e" d="m 32,33.5 c -3.866,0 -7,3.134 -7,7 l 2,0 c 0,-2.761 2.239,-5 5,-5 2.761,0 5,2.239 5,5 l 2,0 c 0,-3.866 -3.134,-7 -7,-7 z"/><path id="path63" fill="#594454" d="m 39.5,41 -3,0 0,-0.5 C 36.5,38.019 34.481,36 32,36 c -2.481,0 -4.5,2.019 -4.5,4.5 l 0,0.5 -3,0 0,-0.5 c 0,-4.136 3.364,-7.5 7.5,-7.5 4.136,0 7.5,3.364 7.5,7.5 l 0,0.5 z m -2.022,-1 1.004,0 c -0.257,-3.352 -3.065,-6 -6.481,-6 -3.416,0 -6.225,2.648 -6.481,6 l 1.004,0 c 0.253,-2.8 2.613,-5 5.478,-5 2.865,0 5.223,2.2 5.476,5 z"/></g><g id="g65"><rect id="rect67" width="18" height="1.5" x="23" y="32.5" fill="#bc856e"/></g><g id="g69"><rect id="rect71" width="2" height="31" x="39.5" y="32.5" fill="#bc856e"/></g><g id="g73"><rect id="rect75" width="2" height="31" x="22.5" y="32.5" fill="#bc856e"/></g><g id="g77"><rect id="rect79" width="4" height="3" x="15" y="42.5" fill="#dea683"/></g><g id="g81"><rect id="rect83" width="8" height="2" x="13" y="40.5" fill="#f0b895"/></g><g id="g85"><rect id="rect87" width="8" height="2" x="43" y="40.5" fill="#f0b895"/></g><g id="g89"><rect id="rect91" width="9.917" height="2" x="11.083" y="50.5" fill="#f0b895"/></g><g id="g93"><rect id="rect95" width="9.875" height="2" x="41.125" y="50.5" fill="#f0b895"/></g><g id="g97"><rect id="rect99" width="4" height="3" x="45" y="42.5" fill="#dea683"/></g><g id="g101"><polygon id="polygon103" fill="#dea683" points="36 13.5 38 13.5 38 10.5 26 10.5 26 13.5 28 13.5 28 14.5 36 14.5"/></g><g id="g105"><circle id="circle107" cx="22" cy="12.52" r="2" fill="#dea683"/></g><g id="g109"><circle id="circle111" cx="17" cy="33" r="1.5" fill="#dea683"/></g><g id="g113"><circle id="circle115" cx="47" cy="33" r="1.5" fill="#dea683"/></g><g id="g117"><circle id="circle119" cx="42" cy="12.52" r="2" fill="#dea683"/></g><g id="g121"><rect id="rect123" width="4" height="3" x="45" y="60.5" fill="#dea683"/></g><g id="g125"><rect id="rect127" width="2" height="3" x="49" y="16.5" fill="#fcf2e8"/></g><g id="g129"><rect id="rect131" width="2" height="9" x="46" y="7.5" fill="#fcf2e8"/></g><g id="g133"><rect id="rect135" width="2" height="2" x="40" y="5.5" fill="#fcf2e8"/></g><g id="g137"><rect id="rect139" width="2" height="2" x="34" y=".5" fill="#fcf2e8"/></g><g id="g141"><path id="path143" fill="#fed9b3" d="m 39,5.5 -14,0 0,0 c 0,-1.657 1.343,-3 3,-3 l 8,0 c 1.657,0 3,1.343 3,3 l 0,0 z"/><path id="path145" fill="#594454" d="m 39.5,6 -15,0 0,-0.5 C 24.5,3.57 26.07,2 28,2 l 8,0 c 1.93,0 3.5,1.57 3.5,3.5 l 0,0.5 z M 25.55,5 38.45,5 C 38.218,3.86 37.207,3 36,3 l -8,0 c -1.207,0 -2.218,0.86 -2.45,2 z"/></g><g id="g147"><path id="path149" fill="#fcf2e8" d="m 36,2.5 -2,0 c 1.657,0 3,1.343 3,3 l 2,0 c 0,-1.657 -1.343,-3 -3,-3 z"/></g><g id="g151"><path id="path153" fill="#594454" d="m 53,64 -42,0 c -0.276,0 -0.5,-0.224 -0.5,-0.5 l 0,-44 C 10.5,19.224 10.724,19 11,19 l 42,0 c 0.276,0 0.5,0.224 0.5,0.5 l 0,44 c 0,0.276 -0.224,0.5 -0.5,0.5 z m -41.5,-1 41,0 0,-43 -41,0 0,43 z"/></g><g id="g155"><path id="path157" fill="#594454" d="m 51,20 -38,0 c -0.276,0 -0.5,-0.224 -0.5,-0.5 l 0,-3 C 12.5,16.224 12.724,16 13,16 l 38,0 c 0.276,0 0.5,0.224 0.5,0.5 l 0,3 c 0,0.276 -0.224,0.5 -0.5,0.5 z m -37.5,-1 37,0 0,-2 -37,0 0,2 z"/></g><g id="g159"><path id="path161" fill="#594454" d="m 48,17 -32,0 c -0.276,0 -0.5,-0.224 -0.5,-0.5 l 0,-9 C 15.5,7.224 15.724,7 16,7 l 32,0 c 0.276,0 0.5,0.224 0.5,0.5 l 0,9 c 0,0.276 -0.224,0.5 -0.5,0.5 z m -31.5,-1 31,0 0,-8 -31,0 0,8 z"/></g><g id="g163"><path id="path165" fill="#594454" d="M 42,8 22,8 C 21.724,8 21.5,7.776 21.5,7.5 l 0,-2 C 21.5,5.224 21.724,5 22,5 l 20,0 c 0.276,0 0.5,0.224 0.5,0.5 l 0,2 C 42.5,7.776 42.276,8 42,8 Z m -19.5,-1 19,0 0,-1 -19,0 0,1 z"/></g><g id="g167"><path id="path169" fill="#594454" d="m 36,15 -8,0 c -0.276,0 -0.5,-0.224 -0.5,-0.5 l 0,-0.5 -1.5,0 c -0.276,0 -0.5,-0.224 -0.5,-0.5 l 0,-3 C 25.5,10.224 25.724,10 26,10 l 12,0 c 0.276,0 0.5,0.224 0.5,0.5 l 0,3 c 0,0.276 -0.224,0.5 -0.5,0.5 l -1.5,0 0,0.5 c 0,0.276 -0.224,0.5 -0.5,0.5 z m -7.5,-1 7,0 0,-0.5 C 35.5,13.224 35.724,13 36,13 l 1.5,0 0,-2 -11,0 0,2 1.5,0 c 0.276,0 0.5,0.224 0.5,0.5 l 0,0.5 z"/></g><g id="g171"><path id="path173" fill="#594454" d="m 39.5,6 -15,0 0,-0.5 C 24.5,3.57 26.07,2 28,2 l 8,0 c 1.93,0 3.5,1.57 3.5,3.5 l 0,0.5 z M 25.55,5 38.45,5 C 38.218,3.86 37.207,3 36,3 l -8,0 c -1.207,0 -2.218,0.86 -2.45,2 z"/></g><g id="g175"><path id="path177" fill="#594454" d="M 36,3 28,3 C 27.724,3 27.5,2.776 27.5,2.5 l 0,-2 C 27.5,0.224 27.724,0 28,0 l 8,0 c 0.276,0 0.5,0.224 0.5,0.5 l 0,2 C 36.5,2.776 36.276,3 36,3 Z m -7.5,-1 7,0 0,-1 -7,0 0,1 z"/></g><g id="g179"><path id="path181" fill="#594454" d="m 39,41 c -0.276,0 -0.5,-0.224 -0.5,-0.5 0,-3.584 -2.916,-6.5 -6.5,-6.5 -3.584,0 -6.5,2.916 -6.5,6.5 0,0.276 -0.224,0.5 -0.5,0.5 -0.276,0 -0.5,-0.224 -0.5,-0.5 0,-4.136 3.364,-7.5 7.5,-7.5 4.136,0 7.5,3.364 7.5,7.5 0,0.276 -0.224,0.5 -0.5,0.5 z"/></g><g id="g183"><path id="path185" fill="#594454" d="m 53,64 -12,0 c -0.276,0 -0.5,-0.224 -0.5,-0.5 l 0,-34 C 40.5,29.224 40.724,29 41,29 l 12,0 c 0.276,0 0.5,0.224 0.5,0.5 l 0,34 c 0,0.276 -0.224,0.5 -0.5,0.5 z m -11.5,-1 11,0 0,-33 -11,0 0,33 z"/></g><g id="g187"><path id="path189" fill="#594454" d="m 23,64 -12,0 c -0.276,0 -0.5,-0.224 -0.5,-0.5 l 0,-34 C 10.5,29.224 10.724,29 11,29 l 12,0 c 0.276,0 0.5,0.224 0.5,0.5 l 0,34 c 0,0.276 -0.224,0.5 -0.5,0.5 z m -11.5,-1 11,0 0,-33 -11,0 0,33 z"/></g><g id="g191"><rect id="rect193" width="2.5" height="2" x="13" y="36.5" fill="#dea683"/></g><g id="g195"><rect id="rect197" width="2.5" height="2" x="18.5" y="36.5" fill="#dea683"/></g><g id="g199"><rect id="rect201" width="2.5" height="2" x="43" y="36.5" fill="#dea683"/></g><g id="g203"><rect id="rect205" width="2.5" height="2" x="48.5" y="36.5" fill="#dea683"/></g><g id="g207"><path id="path209" fill="#594454" d="m 21,64 -8,0 c -0.276,0 -0.5,-0.224 -0.5,-0.5 l 0,-27 C 12.5,36.224 12.724,36 13,36 l 8,0 c 0.276,0 0.5,0.224 0.5,0.5 l 0,27 c 0,0.276 -0.224,0.5 -0.5,0.5 z m -7.5,-1 7,0 0,-26 -7,0 0,26 z"/></g><g id="g211"><path id="path213" fill="#594454" d="m 18.5,39 -3,0 C 15.224,39 15,38.776 15,38.5 l 0,-2 C 15,36.224 15.224,36 15.5,36 l 3,0 c 0.276,0 0.5,0.224 0.5,0.5 l 0,2 c 0,0.276 -0.224,0.5 -0.5,0.5 z m -2.5,-1 2,0 0,-1 -2,0 0,1 z"/></g><g id="g215"><path id="path217" fill="#594454" d="m 19,46 -4,0 c -0.276,0 -0.5,-0.224 -0.5,-0.5 l 0,-3 C 14.5,42.224 14.724,42 15,42 l 4,0 c 0.276,0 0.5,0.224 0.5,0.5 l 0,3 c 0,0.276 -0.224,0.5 -0.5,0.5 z m -3.5,-1 3,0 0,-2 -3,0 0,2 z"/></g><g id="g219"><path id="path221" fill="#594454" d="M 22.5,61 10,61 C 9.724,61 9.5,60.776 9.5,60.5 9.5,60.224 9.724,60 10,60 l 12.5,0 c 0.276,0 0.5,0.224 0.5,0.5 0,0.276 -0.224,0.5 -0.5,0.5 z"/></g><g id="g223"><path id="path225" fill="#594454" d="M 22.5,43 11,43 c -0.276,0 -0.5,-0.224 -0.5,-0.5 0,-0.276 0.224,-0.5 0.5,-0.5 l 11.5,0 c 0.276,0 0.5,0.224 0.5,0.5 0,0.276 -0.224,0.5 -0.5,0.5 z"/></g><g id="g227"><path id="path229" fill="#594454" d="m 21,39 -8,0 c -0.276,0 -0.5,-0.224 -0.5,-0.5 0,-0.276 0.224,-0.5 0.5,-0.5 l 8,0 c 0.276,0 0.5,0.224 0.5,0.5 0,0.276 -0.224,0.5 -0.5,0.5 z"/></g><g id="g231"><path id="path233" fill="#594454" d="m 48.5,39 -3,0 C 45.224,39 45,38.776 45,38.5 l 0,-2 C 45,36.224 45.224,36 45.5,36 l 3,0 c 0.276,0 0.5,0.224 0.5,0.5 l 0,2 c 0,0.276 -0.224,0.5 -0.5,0.5 z m -2.5,-1 2,0 0,-1 -2,0 0,1 z"/></g><g id="g235"><path id="path237" fill="#594454" d="m 51,39 -8,0 c -0.276,0 -0.5,-0.224 -0.5,-0.5 0,-0.276 0.224,-0.5 0.5,-0.5 l 8,0 c 0.276,0 0.5,0.224 0.5,0.5 0,0.276 -0.224,0.5 -0.5,0.5 z"/></g><g id="g239"><path id="path241" fill="#594454" d="m 22,15.021 c -1.379,0 -2.5,-1.121 -2.5,-2.5 0,-1.379 1.121,-2.5 2.5,-2.5 1.379,0 2.5,1.121 2.5,2.5 0,1.379 -1.121,2.5 -2.5,2.5 z m 0,-4 c -0.827,0 -1.5,0.673 -1.5,1.5 0,0.827 0.673,1.5 1.5,1.5 0.827,0 1.5,-0.673 1.5,-1.5 0,-0.827 -0.673,-1.5 -1.5,-1.5 z"/></g><g id="g243"><path id="path245" fill="#594454" d="m 17,35 c -1.103,0 -2,-0.897 -2,-2 0,-1.103 0.897,-2 2,-2 1.103,0 2,0.897 2,2 0,1.103 -0.897,2 -2,2 z m 0,-3 c -0.552,0 -1,0.448 -1,1 0,0.552 0.448,1 1,1 0.552,0 1,-0.448 1,-1 0,-0.552 -0.448,-1 -1,-1 z"/></g><g id="g247"><path id="path249" fill="#594454" d="m 51,64 -8,0 c -0.276,0 -0.5,-0.224 -0.5,-0.5 l 0,-27 C 42.5,36.224 42.724,36 43,36 l 8,0 c 0.276,0 0.5,0.224 0.5,0.5 l 0,27 c 0,0.276 -0.224,0.5 -0.5,0.5 z m -7.5,-1 7,0 0,-26 -7,0 0,26 z"/></g><g id="g251"><path id="path253" fill="#594454" d="m 49,64 -4,0 c -0.276,0 -0.5,-0.224 -0.5,-0.5 l 0,-3 C 44.5,60.224 44.724,60 45,60 l 4,0 c 0.276,0 0.5,0.224 0.5,0.5 l 0,3 c 0,0.276 -0.224,0.5 -0.5,0.5 z m -3.5,-1 3,0 0,-2 -3,0 0,2 z"/></g><g id="g255"><path id="path257" fill="#594454" d="m 49,46 -4,0 c -0.276,0 -0.5,-0.224 -0.5,-0.5 l 0,-3 C 44.5,42.224 44.724,42 45,42 l 4,0 c 0.276,0 0.5,0.224 0.5,0.5 l 0,3 c 0,0.276 -0.224,0.5 -0.5,0.5 z m -3.5,-1 3,0 0,-2 -3,0 0,2 z"/></g><g id="g259"><path id="path261" fill="#594454" d="m 54,61 -12.75,0 c -0.276,0 -0.5,-0.224 -0.5,-0.5 0,-0.276 0.224,-0.5 0.5,-0.5 L 54,60 c 0.276,0 0.5,0.224 0.5,0.5 0,0.276 -0.224,0.5 -0.5,0.5 z"/></g><g id="g263"><path id="path265" fill="#594454" d="M 52.5,43 41,43 c -0.276,0 -0.5,-0.224 -0.5,-0.5 0,-0.276 0.224,-0.5 0.5,-0.5 l 11.5,0 c 0.276,0 0.5,0.224 0.5,0.5 0,0.276 -0.224,0.5 -0.5,0.5 z"/></g><g id="g267"><path id="path269" fill="#594454" d="m 47,35 c -1.103,0 -2,-0.897 -2,-2 0,-1.103 0.897,-2 2,-2 1.103,0 2,0.897 2,2 0,1.103 -0.897,2 -2,2 z m 0,-3 c -0.552,0 -1,0.448 -1,1 0,0.552 0.448,1 1,1 0.552,0 1,-0.448 1,-1 0,-0.552 -0.448,-1 -1,-1 z"/></g><g id="g271"><path id="path273" fill="#594454" d="m 42,15.021 c -1.379,0 -2.5,-1.121 -2.5,-2.5 0,-1.379 1.121,-2.5 2.5,-2.5 1.379,0 2.5,1.121 2.5,2.5 0,1.379 -1.121,2.5 -2.5,2.5 z m 0,-4 c -0.827,0 -1.5,0.673 -1.5,1.5 0,0.827 0.673,1.5 1.5,1.5 0.827,0 1.5,-0.673 1.5,-1.5 0,-0.827 -0.673,-1.5 -1.5,-1.5 z"/></g><g id="g275"><polygon id="polygon277" fill="#dea683" points="8 23.5 56 23.5 53 29.5 11 29.5"/></g><g id="g279"><polygon id="polygon281" fill="#dea683" points="55 25.5 9.001 25.502 11 29.5 53 29.5"/></g><g id="g283"><polygon id="polygon285" fill="#bc856e" points="9.001 25.502 9.751 27.002 54.25 27 55 25.5"/></g><g id="g287"><path id="path289" fill="#594454" d="m 14,29.766 c -0.276,0 -0.5,-0.224 -0.5,-0.5 l 0,-3.766 c 0,-0.276 0.224,-0.5 0.5,-0.5 0.276,0 0.5,0.224 0.5,0.5 l 0,3.766 c 0,0.276 -0.224,0.5 -0.5,0.5 z"/></g><g id="g291"><path id="path293" fill="#594454" d="m 11,29.766 c -0.276,0 -0.5,-0.224 -0.5,-0.5 l 0,-3.766 c 0,-0.276 0.224,-0.5 0.5,-0.5 0.276,0 0.5,0.224 0.5,0.5 l 0,3.766 c 0,0.276 -0.224,0.5 -0.5,0.5 z"/></g><g id="g295"><path id="path297" fill="#594454" d="m 17,29.766 c -0.276,0 -0.5,-0.224 -0.5,-0.5 l 0,-3.766 c 0,-0.276 0.224,-0.5 0.5,-0.5 0.276,0 0.5,0.224 0.5,0.5 l 0,3.766 c 0,0.276 -0.224,0.5 -0.5,0.5 z"/></g><g id="g299"><path id="path301" fill="#594454" d="m 20,29.766 c -0.276,0 -0.5,-0.224 -0.5,-0.5 l 0,-3.766 c 0,-0.276 0.224,-0.5 0.5,-0.5 0.276,0 0.5,0.224 0.5,0.5 l 0,3.766 c 0,0.276 -0.224,0.5 -0.5,0.5 z"/></g><g id="g303"><path id="path305" fill="#594454" d="m 23,29.766 c -0.276,0 -0.5,-0.224 -0.5,-0.5 l 0,-3.766 c 0,-0.276 0.224,-0.5 0.5,-0.5 0.276,0 0.5,0.224 0.5,0.5 l 0,3.766 c 0,0.276 -0.224,0.5 -0.5,0.5 z"/></g><g id="g307"><path id="path309" fill="#594454" d="m 26,29.766 c -0.276,0 -0.5,-0.224 -0.5,-0.5 l 0,-3.766 c 0,-0.276 0.224,-0.5 0.5,-0.5 0.276,0 0.5,0.224 0.5,0.5 l 0,3.766 c 0,0.276 -0.224,0.5 -0.5,0.5 z"/></g><g id="g311"><path id="path313" fill="#594454" d="m 29,29.766 c -0.276,0 -0.5,-0.224 -0.5,-0.5 l 0,-3.766 c 0,-0.276 0.224,-0.5 0.5,-0.5 0.276,0 0.5,0.224 0.5,0.5 l 0,3.766 c 0,0.276 -0.224,0.5 -0.5,0.5 z"/></g><g id="g315"><path id="path317" fill="#594454" d="m 32,29.766 c -0.276,0 -0.5,-0.224 -0.5,-0.5 l 0,-3.766 c 0,-0.276 0.224,-0.5 0.5,-0.5 0.276,0 0.5,0.224 0.5,0.5 l 0,3.766 c 0,0.276 -0.224,0.5 -0.5,0.5 z"/></g><g id="g319"><path id="path321" fill="#594454" d="m 35,29.766 c -0.276,0 -0.5,-0.224 -0.5,-0.5 l 0,-3.766 c 0,-0.276 0.224,-0.5 0.5,-0.5 0.276,0 0.5,0.224 0.5,0.5 l 0,3.766 c 0,0.276 -0.224,0.5 -0.5,0.5 z"/></g><g id="g323"><path id="path325" fill="#594454" d="m 38,29.766 c -0.276,0 -0.5,-0.224 -0.5,-0.5 l 0,-3.766 c 0,-0.276 0.224,-0.5 0.5,-0.5 0.276,0 0.5,0.224 0.5,0.5 l 0,3.766 c 0,0.276 -0.224,0.5 -0.5,0.5 z"/></g><g id="g327"><path id="path329" fill="#594454" d="m 41,29.766 c -0.276,0 -0.5,-0.224 -0.5,-0.5 l 0,-3.766 c 0,-0.276 0.224,-0.5 0.5,-0.5 0.276,0 0.5,0.224 0.5,0.5 l 0,3.766 c 0,0.276 -0.224,0.5 -0.5,0.5 z"/></g><g id="g331"><path id="path333" fill="#594454" d="m 44,29.766 c -0.276,0 -0.5,-0.224 -0.5,-0.5 l 0,-3.766 c 0,-0.276 0.224,-0.5 0.5,-0.5 0.276,0 0.5,0.224 0.5,0.5 l 0,3.766 c 0,0.276 -0.224,0.5 -0.5,0.5 z"/></g><g id="g335"><path id="path337" fill="#594454" d="m 47,29.766 c -0.276,0 -0.5,-0.224 -0.5,-0.5 l 0,-3.766 c 0,-0.276 0.224,-0.5 0.5,-0.5 0.276,0 0.5,0.224 0.5,0.5 l 0,3.766 c 0,0.276 -0.224,0.5 -0.5,0.5 z"/></g><g id="g339"><path id="path341" fill="#594454" d="m 50,29.766 c -0.276,0 -0.5,-0.224 -0.5,-0.5 l 0,-3.766 c 0,-0.276 0.224,-0.5 0.5,-0.5 0.276,0 0.5,0.224 0.5,0.5 l 0,3.766 c 0,0.276 -0.224,0.5 -0.5,0.5 z"/></g><g id="g343"><path id="path345" fill="#594454" d="m 53,29.766 c -0.276,0 -0.5,-0.224 -0.5,-0.5 l 0,-3.766 c 0,-0.276 0.224,-0.5 0.5,-0.5 0.276,0 0.5,0.224 0.5,0.5 l 0,3.766 c 0,0.276 -0.224,0.5 -0.5,0.5 z"/></g><g id="g347" fill="#fdd3b0"><polygon id="polygon349" points="56 23.5 55 25.5 9.001 25.502 8 23.5"/><path id="path351" d="M 8.692,26.002 7.191,23 l 49.617,0 -1.5,3 -46.616,0.002 z M 8.809,24 9.31,25.002 54.691,25 l 0.5,-1 -46.382,0 z"/></g><g id="g353"><path id="path355" fill="#594454" d="M 54.5,26 9.29,26 c -0.276,0 -0.5,-0.224 -0.5,-0.5 0,-0.276 0.224,-0.5 0.5,-0.5 l 45.21,0 c 0.276,0 0.5,0.224 0.5,0.5 0,0.276 -0.224,0.5 -0.5,0.5 z"/></g><g id="g357"><path id="path359" fill="#594454" d="m 53,30 -42,0 c -0.189,0 -0.362,-0.107 -0.447,-0.276 l -3,-6 C 7.476,23.569 7.484,23.385 7.574,23.238 7.666,23.09 7.827,23 8,23 l 48,0 c 0.173,0 0.334,0.09 0.426,0.237 0.091,0.147 0.099,0.331 0.021,0.486 l -3,6 C 53.362,29.893 53.189,30 53,30 Z m -41.691,-1 41.383,0 2.5,-5 -46.383,0 2.5,5 z"/></g><g id="g361"><polygon id="polygon363" fill="#dea683" points="9.063 47.5 25 47.5 23 50.5 11.063 50.5"/></g><g id="g365"><polygon id="polygon367" fill="#dea683" points="39.063 47.5 55 47.5 53 50.5 41.063 50.5"/></g><g id="g369"><polygon id="polygon371" fill="#eee1cc" points="53 50.5 55 47.5 53 47.5 51 50.5"/></g><g id="g373"><polygon id="polygon375" fill="#eee1cc" points="23 50.5 25 47.5 23 47.5 21 50.5"/></g><g id="g377"><path id="path379" fill="#594454" d="m 23,51 -11.937,0 c -0.167,0 -0.323,-0.084 -0.416,-0.223 l -2,-3 C 8.544,47.624 8.535,47.426 8.623,47.263 8.709,47.102 8.878,47 9.063,47 L 25,47 c 0.185,0 0.354,0.102 0.44,0.264 0.088,0.163 0.078,0.36 -0.024,0.514 l -2,3 C 23.323,50.916 23.167,51 23,51 Z m -11.67,-1 11.402,0 1.333,-2 -14.068,0 1.333,2 z"/></g><g id="g381"><path id="path383" fill="#594454" d="m 53,51 -11.937,0 c -0.167,0 -0.323,-0.084 -0.416,-0.223 l -2,-3 C 38.544,47.624 38.535,47.426 38.623,47.263 38.709,47.102 38.878,47 39.063,47 L 55,47 c 0.185,0 0.354,0.102 0.44,0.264 0.088,0.163 0.078,0.36 -0.024,0.514 l -2,3 C 53.323,50.916 53.167,51 53,51 Z m -11.67,-1 11.402,0 1.333,-2 -14.068,0 1.333,2 z"/></g><g id="g385"><rect id="rect387" width="4" height="3" x="15" y="60.5" fill="#dea683"/></g><g id="g389"><path id="path391" fill="#594454" d="m 19,64 -4,0 c -0.276,0 -0.5,-0.224 -0.5,-0.5 l 0,-3 C 14.5,60.224 14.724,60 15,60 l 4,0 c 0.276,0 0.5,0.224 0.5,0.5 l 0,3 c 0,0.276 -0.224,0.5 -0.5,0.5 z m -3.5,-1 3,0 0,-2 -3,0 0,2 z"/></g><g id="g397"><path id="path399" fill="#594454" d="m 37,64 -10,0 c -0.276,0 -0.5,-0.224 -0.5,-0.5 l 0,-23 c 0,-3.032 2.468,-5.5 5.5,-5.5 3.032,0 5.5,2.468 5.5,5.5 l 0,23 c 0,0.276 -0.224,0.5 -0.5,0.5 z m -9.5,-1 9,0 0,-22.5 C 36.5,38.019 34.481,36 32,36 c -2.481,0 -4.5,2.019 -4.5,4.5 l 0,22.5 z"/></g><g id="g401"><path id="path403" fill="#594454" d="m 28,48 -3.75,0 c -0.276,0 -0.5,-0.224 -0.5,-0.5 0,-0.276 0.224,-0.5 0.5,-0.5 L 28,47 c 0.276,0 0.5,0.224 0.5,0.5 0,0.276 -0.224,0.5 -0.5,0.5 z"/></g><g id="g405"><path id="path407" fill="#594454" d="M 39.75,48 36,48 c -0.276,0 -0.5,-0.224 -0.5,-0.5 0,-0.276 0.224,-0.5 0.5,-0.5 l 3.75,0 c 0.276,0 0.5,0.224 0.5,0.5 0,0.276 -0.224,0.5 -0.5,0.5 z"/></g><g id="g409"><path id="path411" fill="#594454" d="M 28,41 10,41 C 9.724,41 9.5,40.776 9.5,40.5 9.5,40.224 9.724,40 10,40 l 18,0 c 0.276,0 0.5,0.224 0.5,0.5 0,0.276 -0.224,0.5 -0.5,0.5 z"/></g><g id="g413"><path id="path415" fill="#594454" d="m 54,41 -18,0 c -0.276,0 -0.5,-0.224 -0.5,-0.5 0,-0.276 0.224,-0.5 0.5,-0.5 l 18,0 c 0.276,0 0.5,0.224 0.5,0.5 0,0.276 -0.224,0.5 -0.5,0.5 z"/></g><g id="g417"><polygon id="polygon419" fill="#fdd3b0" points="33 32.5 41 32.5 41 29.5 23 29.5 23 32.5 31 32.5 31 36.5 33 36.5"/></g><g id="g421"><rect id="rect423" width="18" height="1.5" x="23" y="29.5" fill="#f0b895"/></g><g id="g425"><path id="path427" fill="#594454" d="m 33,37 -2,0 c -0.276,0 -0.5,-0.224 -0.5,-0.5 l 0,-3.5 -7.5,0 c -0.276,0 -0.5,-0.224 -0.5,-0.5 l 0,-3 C 22.5,29.224 22.724,29 23,29 l 18,0 c 0.276,0 0.5,0.224 0.5,0.5 l 0,3 c 0,0.276 -0.224,0.5 -0.5,0.5 l -7.5,0 0,3.5 c 0,0.276 -0.224,0.5 -0.5,0.5 z m -1.5,-1 1,0 0,-3.5 C 32.5,32.224 32.724,32 33,32 l 7.5,0 0,-2 -17,0 0,2 7.5,0 c 0.276,0 0.5,0.224 0.5,0.5 l 0,3.5 z"/></g></g><g id="g4573" transform="translate(13 23)"><path id="path4575" fill="#594454" d="m 44.5,41 -51,0 C -6.776,41 -7,40.776 -7,40.5 -7,40.224 -6.776,40 -6.5,40 l 51,0 c 0.276,0 0.5,0.224 0.5,0.5 0,0.276 -0.224,0.5 -0.5,0.5 z"/></g></g></g></svg>