<svg xmlns="http://www.w3.org/2000/svg" xmlns:xlink="http://www.w3.org/1999/xlink" id="Layer_1" enable-background="new 0 0 100 100" viewBox="0 0 100 100"><symbol id="navbar_x5F_icon_x5F_back_1_" viewBox="-1 -24 25 24"><path fill="none" stroke="#fff" stroke-miterlimit="10" stroke-width="2" d="M18-19c0-0.4,0-0.5-0.3-0.3l-12,7c-0.3,0.2-0.2,0.5,0.1,0.6l11.9,7C18-4.5,18-4.7,18-5V-19z" opacity=".9"/><rect width="24" height="24" y="-24" fill="none"/><rect width="25" height="24" x="-1" y="-24" fill="none" display="none"/></symbol><symbol id="navbar_x5F_icon_x5F_home_1_" viewBox="0 -24 24 24"><g opacity=".9"><g id="XMLID_809_"><circle id="XMLID_814_" cx="12" cy="-12" r="6.9" fill="none" stroke="#fff" stroke-miterlimit="10" stroke-width="1.803"/></g></g><rect width="24" height="24" y="-24" fill="none"/><rect width="24" height="23" y="-24" fill="none" display="none"/></symbol><symbol id="navbar_x5F_icon_x5F_recents_1_" viewBox="0 -24 24 24"><path fill="none" stroke="#fff" stroke-miterlimit="10" stroke-width="2" d="M19-5.7C19-5.4,18.6-5,18.2-5H5.8C5.4-5,5-5.4,5-5.7v-12.6C5-18.6,5.4-19,5.8-19h12.4      c0.4,0,0.8,0.4,0.8,0.7V-5.7z" opacity=".9"/><rect width="24" height="24" y="-24" fill="none"/><rect width="24" height="23" y="-24" fill="none" display="none"/></symbol><symbol id="sysbar_x5F_status_2" viewBox="0 -24 360 24"><use id="XMLID_495_" width="360" height="24" y="-24" overflow="visible" xlink:href="#sysbar_x5F_status_x5F_used_x5F_light"/></symbol><symbol id="sysbar_x5F_status_x5F_used_x5F_light" viewBox="0 -24 360 24"><rect width="360" height="24" y="-24" fill="#010101" fill-opacity="0"/><rect width="40" height="16" x="312" y="-21" fill="none" opacity=".9"/><path fill="#fff" d="M266-19l8.8,10.9C274.5-7.8,271.1-5,266-5s-8.5-2.8-8.8-3.1L266-19L266-19L266-19L266-19L266-19z" opacity=".9"/><rect width="16" height="16" x="258" y="-20" fill="none"/><polygon fill="#fff" points="277 -19 291 -19 291 -5" opacity=".9"/><rect width="16" height="16" x="276" y="-20" fill="none"/><g><rect width="16" height="16" x="296" y="-20" fill="none"/><path fill="#fff" d="M306-6v1h-3v-1h-3v-13h9v13H306z" opacity=".9"/></g></symbol><rect id="XMLID_3054_" width="19" height="25" x="40.5" y="65.2" fill="#f1f1f2"/><rect width="2" height="25" x="57.5" y="65.2" fill="#fff"/><rect id="XMLID_3053_" width="9" height="23" x="31.5" y="67.2" fill="#f1f1f2"/><rect id="XMLID_3052_" width="7" height="23.1" x="24.5" y="67.1" fill="#f1f1f2"/><rect width="2" height="23.1" x="29.5" y="67.1" fill="#fff"/><g id="XMLID_3049_"><path id="XMLID_3051_" fill="#f1f1f2" d="M64.1,59.2l1.8,1.3c1.2,0.8,1.5,2.3,0.8,3.6l-0.1,0.3h-2.5"/><path id="XMLID_3050_" fill="#f1f1f2" d="M64.1,59.2l-1.8,1.3c-1.2,0.8-1.5,2.3-0.8,3.6l0.1,0.3h2.5"/></g><rect id="XMLID_3048_" width="5" height="4" x="61.5" y="64.2" fill="#f1f1f2" transform="rotate(-180 64 66.233)"/><g id="XMLID_3045_"><path id="XMLID_3047_" fill="#f1f1f2" d="M35.9,59.2l-1.8,1.3c-1.2,0.8-1.5,2.3-0.8,3.6l0.1,0.3h2.5"/><path id="XMLID_3046_" fill="#f1f1f2" d="M35.9,59.2l1.8,1.3c1.2,0.8,1.5,2.3,0.8,3.6l-0.1,0.3h-2.5"/></g><polygon id="XMLID_3044_" fill="#f1f1f2" points="93.5 90.2 89.5 90.2 90.5 56.2 92.5 56.2"/><polygon id="XMLID_3043_" fill="#f1f1f2" points="84.5 90.2 80.5 90.2 81.5 66.2 83.5 66.2"/><polygon id="XMLID_3042_" fill="#f1f1f2" points="15.5 90.2 19.5 90.2 18.5 66.2 16.5 66.2"/><polygon id="XMLID_3041_" fill="#f1f1f2" points="6.5 90.2 10.5 90.2 9.5 56.2 7.5 56.2"/><polygon fill="#d9d4d8" points="6.8 80.2 10.2 80.2 10.1 78.2 6.8 78.2"/><polygon fill="#d9d4d8" points="7.2 67.2 9.8 67.2 9.7 65.2 7.2 65.2"/><polygon fill="#d9d4d8" points="9.5 58.2 9.5 56.2 7.5 56.2 7.4 58.2"/><polygon fill="#d9d4d8" points="18.6 68.2 18.5 66.2 16.5 66.2 16.4 68.2"/><polygon fill="#d9d4d8" points="16.1 76.2 18.9 76.2 18.8 74.2 16.1 74.2"/><polygon fill="#d9d4d8" points="15.8 84.2 19.2 84.2 19.1 82.2 15.8 82.2"/><polygon fill="#d9d4d8" points="93.2 80.2 89.8 80.2 89.8 78.2 93.1 78.2"/><polygon fill="#d9d4d8" points="92.8 67.2 90.2 67.2 90.2 65.2 92.7 65.2"/><polygon fill="#d9d4d8" points="90.4 58.2 90.5 56.2 92.5 56.2 92.5 58.2"/><polygon fill="#d9d4d8" points="81.4 68.2 81.5 66.2 83.5 66.2 83.6 68.2"/><polygon fill="#d9d4d8" points="83.9 76.2 81.1 76.2 81.1 74.2 83.8 74.2"/><polygon fill="#d9d4d8" points="84.2 84.2 80.8 84.2 80.8 82.2 84.1 82.2"/><rect id="XMLID_3040_" width="9" height="23" x="59.5" y="67.2" fill="#f1f1f2" transform="rotate(-180 64 78.738)"/><rect id="XMLID_3039_" width="7" height="22.9" x="68.5" y="67.3" fill="#f1f1f2" transform="rotate(-180 72 78.764)"/><path id="XMLID_3038_" fill="#8e7f8b" d="M66.5,79.2v-4.5c0-1.1-0.6-2.2-1.5-2.8l-1-0.6l-1,0.6c-1,0.6-1.5,1.7-1.5,2.8v4.5H66.5z"/><path id="XMLID_3037_" fill="#8e7f8b" d="M73.5,79.2v-5.9c0-0.7-0.3-1.3-0.9-1.7L72,71.2l-0.6,0.4c-0.6,0.4-0.9,1-0.9,1.7v5.9H73.5z"/><path id="XMLID_3036_" fill="#8e7f8b" d="M66.5,90.2v-4.6c0-1.1-0.6-2.2-1.5-2.8l-1-0.6l-1,0.6c-1,0.6-1.5,1.7-1.5,2.8v4.6"/><path id="XMLID_3035_" fill="#8e7f8b" d="M73.5,90.2v-5.9c0-0.7-0.3-1.3-0.9-1.7L72,82.2l-0.6,0.4c-0.6,0.4-0.9,1-0.9,1.7v5.9H73.5z"/><path id="XMLID_3034_" fill="#f1f1f2" d="M43.5,90V78.1c0-2.9,1.5-5.7,4-7.3l2.5-1.6l2.5,1.6c2.5,1.6,4,4.3,4,7.3V90"/><rect width="13" height="2" x="43.5" y="79.2" fill="#d9d4d8"/><rect width="19" height="2" x="40.5" y="65.2" fill="#d9d4d8"/><path fill="#d9d4d8" d="M52.5,70.8L50,69.2l-1,0.6l1.5,0.9c2.5,1.6,4,4.3,4,7.3V90h2V78.1C56.5,75.1,55,72.4,52.5,70.8z"/><path fill="#d9d4d8" d="M49.5,70.8l1.5-1l-1-0.6l-2.5,1.6c-2.5,1.6-4,4.3-4,7.3V90h2V78.1C45.5,75.2,47,72.4,49.5,70.8z"/><path id="XMLID_3033_" fill="#8e7f8b" d="M47.5,90.2v-4.6c0-1.1,0.6-2.2,1.5-2.8l1-0.6l1,0.6c1,0.6,1.5,1.7,1.5,2.8v4.6H47.5z"/><path fill="#7a6876" d="M51,82.8l-1-0.6l-1,0.6c-1,0.6-1.5,1.7-1.5,2.8v2c0-1.1,0.6-2.2,1.5-2.8l1-0.6l1,0.6c1,0.6,1.5,1.7,1.5,2.8    v2.6l0,0v-4.6C52.5,84.5,51.9,83.5,51,82.8z"/><path id="XMLID_3032_" fill="#8e7f8b" d="M47.5,79.2v-2.6c0-1.1,0.6-2.2,1.5-2.8l1-0.6l1,0.6c1,0.6,1.5,1.7,1.5,2.8v2.6H47.5z"/><path fill="#7a6876" d="M51,73.8l-1-0.6l-1,0.6c-1,0.6-1.5,1.7-1.5,2.8v2c0-1.1,0.6-2.2,1.5-2.8l1-0.6l1,0.6c1,0.6,1.5,1.7,1.5,2.8    v-2C52.5,75.5,51.9,74.5,51,73.8z"/><path id="XMLID_3031_" fill="#8e7f8b" d="M33.5,79.2v-4.6c0-1.1,0.6-2.2,1.5-2.8l1-0.6l1,0.6c1,0.6,1.5,1.7,1.5,2.8v4.6H33.5z"/><path id="XMLID_3030_" fill="#8e7f8b" d="M26.5,79.2v-5.9c0-0.7,0.3-1.3,0.9-1.7l0.6-0.4l0.6,0.4c0.6,0.4,0.9,1,0.9,1.7v5.9H26.5z"/><path id="XMLID_3029_" fill="#8e7f8b" d="M33.5,90.2v-4.6c0-1.1,0.6-2.2,1.5-2.8l1-0.6l1,0.6c1,0.6,1.5,1.7,1.5,2.8v4.6H33.5z"/><path id="XMLID_3028_" fill="#8e7f8b" d="M26.5,90.2v-5.9c0-0.7,0.3-1.3,0.9-1.7l0.6-0.4l0.6,0.4c0.6,0.4,0.9,1,0.9,1.7v5.9H26.5z"/><path fill="#7a6876" d="M37 71.9l-1-.6-1 .6c-1 .6-1.5 1.7-1.5 2.8v2c0-1.1.6-2.2 1.5-2.8l1-.6 1 .6c1 .6 1.5 1.7 1.5 2.8v-2C38.5 73.5 37.9 72.5 37 71.9zM28.6 71.6L28 71.2l-.6.4c-.6.4-.9 1-.9 1.7v2c0-.7.3-1.3.9-1.7l.6-.4.6.4c.6.4.9 1 .9 1.7v-2C29.5 72.6 29.2 72 28.6 71.6zM37 82.9l-1-.6-1 .6c-1 .6-1.5 1.7-1.5 2.8v2c0-1.1.6-2.2 1.5-2.8l1-.6 1 .6c1 .6 1.5 1.7 1.5 2.8v-2C38.5 84.5 37.9 83.5 37 82.9zM28.6 82.6L28 82.2l-.6.4c-.6.4-.9 1-.9 1.7v2c0-.7.3-1.3.9-1.7l.6-.4.6.4c.6.4.9 1 .9 1.7v-2C29.5 83.6 29.2 83 28.6 82.6zM63 71.9l1-.6 1 .6c1 .6 1.5 1.7 1.5 2.8v2c0-1.1-.6-2.2-1.5-2.8l-1-.6-1 .6c-1 .6-1.5 1.7-1.5 2.8v-2C61.5 73.5 62.1 72.5 63 71.9zM71.4 71.6l.6-.4.6.4c.6.4.9 1 .9 1.7v2c0-.7-.3-1.3-.9-1.7L72 73.2l-.6.4c-.6.4-.9 1-.9 1.7v-2C70.5 72.6 70.8 72 71.4 71.6zM63 82.9l1-.6 1 .6c1 .6 1.5 1.7 1.5 2.8v2c0-1.1-.6-2.2-1.5-2.8l-1-.6-1 .6c-1 .6-1.5 1.7-1.5 2.8v-2C61.5 84.5 62.1 83.5 63 82.9zM71.4 82.6l.6-.4.6.4c.6.4.9 1 .9 1.7v2c0-.7-.3-1.3-.9-1.7L72 84.2l-.6.4c-.6.4-.9 1-.9 1.7v-2C70.5 83.6 70.8 83 71.4 82.6z"/><path id="XMLID_3027_" fill="#f1f1f2" d="M50,45.2l6.4,4.5c4,2.8,5.3,8.3,2.9,12.7l-0.5,0.9H50H49h-7.8l-0.5-0.9c-2.4-4.4-1.1-9.9,2.9-12.7L50,45.2"/><path fill="#fff" d="M56.4,49.7L50,45.2l-1,0.7l5.4,3.8c4,2.8,5.3,8.3,2.9,12.7l-0.5,0.9h2l0.5-0.9C61.7,58,60.4,52.5,56.4,49.7z"/><rect width="2" height="25" x="40.5" y="65.2" fill="#d9d4d8"/><rect width="2" height="23" x="31.5" y="67.2" fill="#d9d4d8"/><rect width="2" height="23" x="24.5" y="67.2" fill="#d9d4d8"/><rect width="2" height="23" x="38.5" y="67.2" fill="#fff"/><rect width="2" height="22.9" x="59.5" y="67.3" fill="#d9d4d8"/><rect width="2" height="23" x="68.5" y="67.2" fill="#d9d4d8"/><rect width="2" height="23" x="66.5" y="67.3" fill="#fff"/><rect width="2" height="22.9" x="73.5" y="67.3" fill="#fff"/><path fill="#d9d4d8" d="M45.6,49.7l5.4-3.8l-1-0.7l-6.4,4.5c-4,2.8-5.3,8.3-2.9,12.7l0.5,0.9h2l-0.5-0.9    C40.3,58,41.6,52.5,45.6,49.7z"/><path id="XMLID_3026_" fill="#594454" d="M58.8,63.9H41.2c-0.2,0-0.4-0.1-0.4-0.3l-0.5-0.9c-2.5-4.6-1.2-10.4,3.1-13.4l6.4-4.5c0.2-0.1,0.4-0.1,0.6,0    l6.4,4.5c4.3,3,5.6,8.7,3.1,13.4l-0.5,0.9C59.1,63.8,59,63.9,58.8,63.9z M41.5,62.9h17l0.4-0.7c2.3-4.2,1.1-9.4-2.8-12.1L50,45.8    l-6.1,4.3c-3.8,2.7-5,7.9-2.8,12.1L41.5,62.9z"/><path fill="#d9d4d8" d="M35.6,60.4l0.3-0.2l0-1l-1.8,1.3c-1.2,0.8-1.5,2.3-0.8,3.6l0.1,0.3h1.5L34.7,64    C34.1,62.7,34.4,61.2,35.6,60.4z"/><path fill="#fff" d="M36.2,60.4l-0.3-0.2l0-1l1.8,1.3c1.2,0.8,1.5,2.3,0.8,3.6l-0.1,0.3h-1.5l0.1-0.3    C37.8,62.7,37.4,61.2,36.2,60.4z"/><rect id="XMLID_3025_" width="19" height="3" x="40.5" y="62.2" fill="#f1f1f2"/><rect width="2" height="3" x="40.5" y="62.2" fill="#d9d4d8"/><rect width="2" height="3" x="57.5" y="62.2" fill="#fff"/><rect width="19" height="1.5" x="40.5" y="62.2" fill="#d9d4d8"/><rect id="XMLID_3024_" width="5" height="3" x="33.5" y="64.2" fill="#f1f1f2"/><rect width="1.5" height="3.1" x="33.5" y="64.1" fill="#d9d4d8"/><rect width="1.5" height="3" x="37" y="64.1" fill="#fff"/><path fill="#d9d4d8" d="M63.6,60.4l0.3-0.2l0-1l-1.8,1.3c-1.2,0.8-1.5,2.3-0.8,3.6l0.1,0.3h1.5L62.7,64    C62.1,62.7,62.4,61.2,63.6,60.4z"/><path fill="#fff" d="M64.2,60.4l-0.3-0.2l0-1l1.8,1.3c1.2,0.8,1.5,2.3,0.8,3.6l-0.1,0.3h-1.5l0.1-0.3    C65.8,62.7,65.4,61.2,64.2,60.4z"/><rect width="1.5" height="3.2" x="61.5" y="64.1" fill="#d9d4d8"/><rect width="1.5" height="3.1" x="65" y="64.1" fill="#fff"/><path id="XMLID_3023_" fill="#f1f1f2" d="M9.5,56.2v-1.6c0-0.5-0.2-0.9-0.6-1.1l-0.4-0.2l-0.4,0.2c-0.4,0.2-0.6,0.7-0.6,1.1v1.6"/><path id="XMLID_3022_" fill="#f1f1f2" d="M18.5,66.2v-1.6c0-0.5-0.2-0.9-0.6-1.1l-0.4-0.2l-0.4,0.2c-0.4,0.2-0.6,0.7-0.6,1.1v1.6"/><path id="XMLID_3021_" fill="#f1f1f2" d="M90.5,56.2v-1.6c0-0.5,0.2-0.9,0.6-1.1l0.4-0.2l0.4,0.2c0.4,0.2,0.6,0.7,0.6,1.1v1.6"/><path id="XMLID_3020_" fill="#f1f1f2" d="M81.5,66.2v-1.6c0-0.5,0.2-0.9,0.6-1.1l0.4-0.2l0.4,0.2c0.4,0.2,0.6,0.7,0.6,1.1v1.6"/><path id="XMLID_3019_" fill="#594454" d="M88.7,90.7h-75c-0.3,0-0.5-0.2-0.5-0.5s0.2-0.5,0.5-0.5h75c0.3,0,0.5,0.2,0.5,0.5S89,90.7,88.7,90.7z"/><g id="XMLID_3016_"><path id="XMLID_3018_" fill="#594454" d="M35.9,64.7h-2.5c-0.2,0-0.3-0.1-0.4-0.3l-0.1-0.3c-0.8-1.5-0.4-3.3,1-4.2l1.8-1.3c0.2-0.2,0.5-0.1,0.7,0.1     c0.2,0.2,0.1,0.5-0.1,0.7l-1.8,1.3c-1,0.6-1.2,1.9-0.7,2.9l0,0h2.2c0.3,0,0.5,0.2,0.5,0.5S36.2,64.7,35.9,64.7z"/><path id="XMLID_3017_" fill="#594454" d="M38.5,64.7h-2.5c-0.3,0-0.5-0.2-0.5-0.5s0.2-0.5,0.5-0.5l2.2,0c0.6-1,0.3-2.3-0.7-2.9l-1.8-1.3     c-0.2-0.2-0.3-0.5-0.1-0.7c0.2-0.2,0.5-0.3,0.7-0.1l1.8,1.3c1.4,0.9,1.8,2.8,1,4.2l-0.1,0.3C38.8,64.6,38.6,64.7,38.5,64.7z"/></g><path id="XMLID_3015_" fill="#594454" d="M10.5,90.7h-4c-0.1,0-0.3-0.1-0.4-0.2C6,90.5,6,90.4,6,90.2l1-34c0-0.3,0.2-0.5,0.5-0.5h2    c0.3,0,0.5,0.2,0.5,0.5l1,34c0,0.1,0,0.3-0.1,0.4C10.7,90.7,10.6,90.7,10.5,90.7z M7,89.7h3l-1-33H8L7,89.7z"/><path id="XMLID_3014_" fill="#594454" d="M19.5,90.7h-4c-0.1,0-0.3-0.1-0.4-0.2C15,90.5,15,90.3,15,90.2l1-24c0-0.3,0.2-0.5,0.5-0.5h2    c0.3,0,0.5,0.2,0.5,0.5l1,24c0,0.1,0,0.3-0.1,0.4C19.7,90.7,19.6,90.7,19.5,90.7z M16,89.7h3l-1-23h-1L16,89.7z"/><path id="XMLID_3013_" fill="#594454" d="M56.5,90.5c-0.3,0-0.5-0.2-0.5-0.5V78.1c0-2.8-1.4-5.4-3.8-6.9L50,69.8l-2.3,1.4c-2.3,1.5-3.8,4.1-3.8,6.9    V90c0,0.3-0.2,0.5-0.5,0.5S43,90.3,43,90V78.1c0-3.1,1.6-6,4.2-7.7l2.5-1.6c0.2-0.1,0.4-0.1,0.5,0l2.5,1.6    c2.7,1.7,4.2,4.6,4.2,7.7V90C57,90.3,56.8,90.5,56.5,90.5z"/><path id="XMLID_3012_" fill="#594454" d="M52.5,90.7h-5c-0.3,0-0.5-0.2-0.5-0.5v-4.6c0-1.3,0.7-2.5,1.8-3.2l1-0.6c0.2-0.1,0.4-0.1,0.5,0l1,0.6    c1.1,0.7,1.8,1.9,1.8,3.2v4.6C53,90.5,52.8,90.7,52.5,90.7z M48,89.7h4v-4.1c0-1-0.5-1.9-1.3-2.4L50,82.8l-0.7,0.5    c-0.8,0.5-1.3,1.4-1.3,2.4V89.7z"/><path id="XMLID_3011_" fill="#594454" d="M52.5,79.7h-5c-0.3,0-0.5-0.2-0.5-0.5v-2.6c0-1.3,0.7-2.5,1.8-3.2l1-0.6c0.2-0.1,0.4-0.1,0.5,0l1,0.6    c1.1,0.7,1.8,1.9,1.8,3.2v2.6C53,79.5,52.8,79.7,52.5,79.7z M48,78.7h4v-2.1c0-1-0.5-1.9-1.3-2.4L50,73.8l-0.7,0.5    c-0.8,0.5-1.3,1.4-1.3,2.4V78.7z"/><path id="XMLID_3010_" fill="#594454" d="M38.5,79.7h-5c-0.3,0-0.5-0.2-0.5-0.5v-4.6c0-1.3,0.7-2.5,1.8-3.2l1-0.6c0.2-0.1,0.4-0.1,0.5,0l1,0.6    c1.1,0.7,1.8,1.9,1.8,3.2v4.6C39,79.5,38.8,79.7,38.5,79.7z M34,78.7h4v-4.1c0-1-0.5-1.9-1.3-2.4L36,71.8l-0.7,0.5    c-0.8,0.5-1.3,1.4-1.3,2.4V78.7z"/><path id="XMLID_3009_" fill="#594454" d="M59.5,90.7h-19c-0.3,0-0.5-0.2-0.5-0.5v-25c0-0.3,0.2-0.5,0.5-0.5h19c0.3,0,0.5,0.2,0.5,0.5v25    C60,90.5,59.8,90.7,59.5,90.7z M41,89.7h18v-24H41V89.7z"/><path id="XMLID_3008_" fill="#594454" d="M59.5,65.7h-19c-0.3,0-0.5-0.2-0.5-0.5v-3c0-0.3,0.2-0.5,0.5-0.5h19c0.3,0,0.5,0.2,0.5,0.5v3    C60,65.5,59.8,65.7,59.5,65.7z M41,64.7h18v-2H41V64.7z"/><path id="XMLID_3007_" fill="#594454" d="M38.5,67.7h-5c-0.3,0-0.5-0.2-0.5-0.5v-3c0-0.3,0.2-0.5,0.5-0.5h5c0.3,0,0.5,0.2,0.5,0.5v3    C39,67.5,38.8,67.7,38.5,67.7z M34,66.7h4v-2h-4V66.7z"/><path id="XMLID_3006_" fill="#594454" d="M40.5,90.7h-9c-0.3,0-0.5-0.2-0.5-0.5v-23c0-0.3,0.2-0.5,0.5-0.5h9c0.3,0,0.5,0.2,0.5,0.5v23    C41,90.5,40.8,90.7,40.5,90.7z M32,89.7h8v-22h-8V89.7z"/><path id="XMLID_3005_" fill="#594454" d="M40.5,79.7h-7.8c-0.3,0-0.5-0.2-0.5-0.5s0.2-0.5,0.5-0.5h7.8c0.3,0,0.5,0.2,0.5,0.5S40.8,79.7,40.5,79.7z"/><path id="XMLID_3004_" fill="#594454" d="M29.5,79.7h-3c-0.3,0-0.5-0.2-0.5-0.5v-5.9c0-0.9,0.4-1.6,1.1-2.1l0.6-0.4c0.2-0.1,0.4-0.1,0.5,0l0.6,0.4    c0.7,0.5,1.2,1.3,1.2,2.1v5.9C30,79.5,29.8,79.7,29.5,79.7z M27,78.7h2v-5.4c0-0.5-0.3-1-0.7-1.3L28,71.8L27.7,72    c-0.4,0.3-0.7,0.7-0.7,1.3V78.7z"/><path id="XMLID_3003_" fill="#594454" d="M38.5,90.7h-5c-0.3,0-0.5-0.2-0.5-0.5v-4.6c0-1.3,0.7-2.5,1.8-3.2l1-0.6c0.2-0.1,0.4-0.1,0.5,0l1,0.6    c1.1,0.7,1.8,1.9,1.8,3.2v4.6C39,90.5,38.8,90.7,38.5,90.7z M34,89.7h4v-4.1c0-1-0.5-1.9-1.3-2.4L36,82.8l-0.7,0.5    c-0.8,0.5-1.3,1.4-1.3,2.4V89.7z"/><path id="XMLID_3002_" fill="#594454" d="M29.5,90.7h-3c-0.3,0-0.5-0.2-0.5-0.5v-5.9c0-0.9,0.4-1.6,1.1-2.1l0.6-0.4c0.2-0.1,0.4-0.1,0.5,0l0.6,0.4    c0.7,0.5,1.2,1.3,1.2,2.1v5.9C30,90.5,29.8,90.7,29.5,90.7z M27,89.7h2v-5.4c0-0.5-0.3-1-0.7-1.3L28,82.8L27.7,83    c-0.4,0.3-0.7,0.7-0.7,1.3V89.7z"/><path id="XMLID_3001_" fill="#594454" d="M66.5,79.7h-5c-0.3,0-0.5-0.2-0.5-0.5v-4.5c0-1.3,0.7-2.5,1.8-3.2l1-0.6c0.2-0.1,0.4-0.1,0.5,0l1,0.6    c1.1,0.7,1.8,1.9,1.8,3.2v4.5C67,79.4,66.8,79.7,66.5,79.7z M62,78.7h4v-4c0-1-0.5-1.9-1.3-2.4L64,71.8l-0.7,0.4    c-0.8,0.5-1.3,1.4-1.3,2.4V78.7z"/><path id="XMLID_3000_" fill="#594454" d="M73.5,79.7h-3c-0.3,0-0.5-0.2-0.5-0.5v-5.9c0-0.9,0.4-1.6,1.2-2.1l0.6-0.4c0.2-0.1,0.4-0.1,0.5,0l0.6,0.4    c0.7,0.5,1.1,1.2,1.1,2.1v5.9C74,79.5,73.8,79.7,73.5,79.7z M71,78.7h2v-5.4c0-0.5-0.3-1-0.7-1.3L72,71.8L71.7,72    c-0.4,0.3-0.7,0.8-0.7,1.3V78.7z"/><path id="XMLID_2999_" fill="#594454" d="M66.5,90.7c-0.3,0-0.5-0.2-0.5-0.5v-4.6c0-1-0.5-1.9-1.3-2.4L64,82.8l-0.7,0.4c-0.8,0.5-1.3,1.4-1.3,2.4v4.6    c0,0.3-0.2,0.5-0.5,0.5S61,90.5,61,90.2v-4.6c0-1.3,0.7-2.5,1.8-3.2l1-0.6c0.2-0.1,0.4-0.1,0.5,0l1,0.6c1.1,0.7,1.8,1.9,1.8,3.2    v4.6C67,90.5,66.8,90.7,66.5,90.7z"/><path id="XMLID_2998_" fill="#594454" d="M73.5,90.7h-3c-0.3,0-0.5-0.2-0.5-0.5v-5.9c0-0.9,0.4-1.6,1.2-2.1l0.6-0.4c0.2-0.1,0.4-0.1,0.5,0l0.6,0.4    c0.7,0.5,1.1,1.2,1.1,2.1v5.9C74,90.5,73.8,90.7,73.5,90.7z M71,89.7h2v-5.4c0-0.5-0.3-1-0.7-1.3L72,82.8L71.7,83    c-0.4,0.3-0.7,0.8-0.7,1.3V89.7z"/><path id="XMLID_2997_" fill="#594454" d="M31.5,90.7h-7c-0.3,0-0.5-0.2-0.5-0.5v-23c0-0.3,0.2-0.5,0.5-0.5h7c0.3,0,0.5,0.2,0.5,0.5v23    C32,90.5,31.8,90.7,31.5,90.7z M25,89.7h6v-22h-6V89.7z"/><path id="XMLID_2996_" fill="#594454" d="M32.7,79.7h-8c-0.3,0-0.5-0.2-0.5-0.5s0.2-0.5,0.5-0.5h8c0.3,0,0.5,0.2,0.5,0.5S33,79.7,32.7,79.7z"/><path id="XMLID_2995_" fill="#594454" d="M56.5,79.7H43.7c-0.3,0-0.5-0.2-0.5-0.5s0.2-0.5,0.5-0.5h12.8c0.3,0,0.5,0.2,0.5,0.5S56.8,79.7,56.5,79.7z"/><path id="XMLID_2994_" fill="#594454" d="M36,67.6c-0.3,0-0.5-0.2-0.5-0.5v-0.9c0-0.3,0.2-0.5,0.5-0.5s0.5,0.2,0.5,0.5v0.9    C36.5,67.4,36.3,67.6,36,67.6z"/><g id="XMLID_2991_"><path id="XMLID_2993_" fill="#594454" d="M66.6,64.7h-2.5c-0.3,0-0.5-0.2-0.5-0.5s0.2-0.5,0.5-0.5l2.2,0c0.6-1,0.3-2.3-0.7-2.9l-1.8-1.3     c-0.2-0.2-0.3-0.5-0.1-0.7c0.2-0.2,0.5-0.3,0.7-0.1l1.8,1.3c1.4,0.9,1.8,2.8,1,4.2L67,64.5C67,64.6,66.8,64.7,66.6,64.7z"/><path id="XMLID_2992_" fill="#594454" d="M64.1,64.7h-2.5c-0.2,0-0.3-0.1-0.4-0.3l-0.1-0.3c-0.8-1.5-0.4-3.3,1-4.2l1.8-1.3c0.2-0.2,0.5-0.1,0.7,0.1     c0.2,0.2,0.1,0.5-0.1,0.7l-1.8,1.3c-1,0.6-1.2,1.9-0.7,2.9l0,0h2.2c0.3,0,0.5,0.2,0.5,0.5S64.3,64.7,64.1,64.7z"/></g><path id="XMLID_2990_" fill="#594454" d="M66.5,67.7h-5c-0.3,0-0.5-0.2-0.5-0.5v-3c0-0.3,0.2-0.5,0.5-0.5h5c0.3,0,0.5,0.2,0.5,0.5v3    C67,67.5,66.8,67.7,66.5,67.7z M62,66.7h4v-2h-4V66.7z"/><path id="XMLID_2989_" fill="#594454" d="M68.5,90.7h-9c-0.3,0-0.5-0.2-0.5-0.5v-23c0-0.3,0.2-0.5,0.5-0.5h9c0.3,0,0.5,0.2,0.5,0.5v23    C69,90.5,68.8,90.7,68.5,90.7z M60,89.7h8v-22h-8V89.7z"/><path id="XMLID_2988_" fill="#594454" d="M68.2,79.7h-8.8c-0.3,0-0.5-0.2-0.5-0.5s0.2-0.5,0.5-0.5h8.8c0.3,0,0.5,0.2,0.5,0.5S68.5,79.7,68.2,79.7z"/><path id="XMLID_2987_" fill="#594454" d="M75.5,90.7h-7c-0.3,0-0.5-0.2-0.5-0.5v-23c0-0.3,0.2-0.5,0.5-0.5h7c0.3,0,0.5,0.2,0.5,0.5v23    C76,90.5,75.8,90.7,75.5,90.7z M69,89.7h6v-22h-6V89.7z"/><path id="XMLID_2986_" fill="#594454" d="M75.2,79.7h-7c-0.3,0-0.5-0.2-0.5-0.5s0.2-0.5,0.5-0.5h7c0.3,0,0.5,0.2,0.5,0.5S75.5,79.7,75.2,79.7z"/><path id="XMLID_2985_" fill="#594454" d="M64,67.3c-0.3,0-0.5-0.2-0.5-0.5v-0.6c0-0.3,0.2-0.5,0.5-0.5s0.5,0.2,0.5,0.5v0.6    C64.5,67.1,64.3,67.3,64,67.3z"/><path id="XMLID_2984_" fill="#594454" d="M9.5,56.7c-0.3,0-0.5-0.2-0.5-0.5v-1.6c0-0.3-0.1-0.5-0.4-0.7l-0.1-0.1l-0.1,0.1C8.1,54.1,8,54.3,8,54.6v1.6    c0,0.3-0.2,0.5-0.5,0.5S7,56.4,7,56.2v-1.6c0-0.6,0.3-1.2,0.8-1.5l0.4-0.2c0.2-0.1,0.4-0.1,0.5,0l0.4,0.3C9.7,53.4,10,54,10,54.6    v1.6C10,56.4,9.8,56.7,9.5,56.7z"/><path id="XMLID_2983_" fill="#594454" d="M18.5,66.7c-0.3,0-0.5-0.2-0.5-0.5v-1.6c0-0.3-0.1-0.5-0.4-0.7l-0.1-0.1l-0.1,0.1c-0.2,0.2-0.4,0.4-0.4,0.7    v1.6c0,0.3-0.2,0.5-0.5,0.5S16,66.4,16,66.2v-1.6c0-0.6,0.3-1.2,0.8-1.5l0.4-0.2c0.2-0.1,0.4-0.1,0.5,0l0.4,0.3    c0.5,0.3,0.8,0.9,0.8,1.5v1.6C19,66.4,18.8,66.7,18.5,66.7z"/><path id="XMLID_2982_" fill="#594454" d="M8.5,53.7c-0.3,0-0.5-0.2-0.5-0.5v-1c0-0.3,0.2-0.5,0.5-0.5S9,52,9,52.2v1C9,53.5,8.8,53.7,8.5,53.7z"/><path id="XMLID_2981_" fill="#594454" d="M17.5,63.7c-0.3,0-0.5-0.2-0.5-0.5v-1c0-0.3,0.2-0.5,0.5-0.5S18,62,18,62.2v1C18,63.5,17.8,63.7,17.5,63.7z"/><path id="XMLID_2980_" fill="#594454" d="M24.5,68.2c-0.3,0-0.5-0.2-0.5-0.5v-3.5c0-0.3,0.2-0.5,0.5-0.5S25,64,25,64.2v3.5C25,68,24.8,68.2,24.5,68.2    z"/><path id="XMLID_2979_" fill="#594454" d="M75.5,68.2c-0.3,0-0.5-0.2-0.5-0.5v-3.5c0-0.3,0.2-0.5,0.5-0.5S76,64,76,64.2v3.5C76,68,75.8,68.2,75.5,68.2    z"/><path id="XMLID_2978_" fill="#594454" d="M73.5,67.7c-0.3,0-0.5-0.2-0.5-0.5v-1.5c0-0.3,0.2-0.5,0.5-0.5s0.5,0.2,0.5,0.5v1.5    C74,67.5,73.8,67.7,73.5,67.7z"/><path id="XMLID_2977_" fill="#594454" d="M26.5,67.7c-0.3,0-0.5-0.2-0.5-0.5v-1.5c0-0.3,0.2-0.5,0.5-0.5s0.5,0.2,0.5,0.5v1.5    C27,67.5,26.8,67.7,26.5,67.7z"/><path id="XMLID_2976_" fill="#594454" d="M36,59.7c-0.3,0-0.5-0.2-0.5-0.5v-2c0-0.3,0.2-0.5,0.5-0.5s0.5,0.2,0.5,0.5v2C36.5,59.5,36.3,59.7,36,59.7z"/><path id="XMLID_2975_" fill="#594454" d="M42,65.7c-0.3,0-0.5-0.2-0.5-0.5v-1c0-0.3,0.2-0.5,0.5-0.5s0.5,0.2,0.5,0.5v1C42.5,65.5,42.3,65.7,42,65.7z"/><path id="XMLID_2974_" fill="#594454" d="M50.1,49.7c-0.3,0-0.5-0.2-0.5-0.5v-1c0-0.3,0.2-0.5,0.5-0.5s0.5,0.2,0.5,0.5v1    C50.6,49.5,50.3,49.7,50.1,49.7z"/><path id="XMLID_2973_" fill="#594454" d="M48.1,49.7c-0.3,0-0.5-0.2-0.5-0.5v-1c0-0.3,0.2-0.5,0.5-0.5s0.5,0.2,0.5,0.5v1    C48.6,49.5,48.3,49.7,48.1,49.7z"/><path id="XMLID_2972_" fill="#594454" d="M46.1,49.7c-0.3,0-0.5-0.2-0.5-0.5v-1c0-0.3,0.2-0.5,0.5-0.5s0.5,0.2,0.5,0.5v1    C46.6,49.5,46.3,49.7,46.1,49.7z"/><path id="XMLID_2971_" fill="#594454" d="M52.1,49.7c-0.3,0-0.5-0.2-0.5-0.5v-1c0-0.3,0.2-0.5,0.5-0.5s0.5,0.2,0.5,0.5v1    C52.6,49.5,52.3,49.7,52.1,49.7z"/><path id="XMLID_2970_" fill="#594454" d="M54.1,49.7c-0.3,0-0.5-0.2-0.5-0.5v-1c0-0.3,0.2-0.5,0.5-0.5s0.5,0.2,0.5,0.5v1    C54.6,49.5,54.3,49.7,54.1,49.7z"/><path id="XMLID_2969_" fill="#594454" d="M44,65.7c-0.3,0-0.5-0.2-0.5-0.5v-1c0-0.3,0.2-0.5,0.5-0.5s0.5,0.2,0.5,0.5v1C44.5,65.5,44.3,65.7,44,65.7z"/><path id="XMLID_2968_" fill="#594454" d="M46,65.7c-0.3,0-0.5-0.2-0.5-0.5v-1c0-0.3,0.2-0.5,0.5-0.5s0.5,0.2,0.5,0.5v1C46.5,65.5,46.3,65.7,46,65.7z"/><path id="XMLID_2967_" fill="#594454" d="M48,65.7c-0.3,0-0.5-0.2-0.5-0.5v-1c0-0.3,0.2-0.5,0.5-0.5s0.5,0.2,0.5,0.5v1C48.5,65.5,48.3,65.7,48,65.7z"/><path id="XMLID_2966_" fill="#594454" d="M50,65.7c-0.3,0-0.5-0.2-0.5-0.5v-1c0-0.3,0.2-0.5,0.5-0.5s0.5,0.2,0.5,0.5v1C50.5,65.5,50.3,65.7,50,65.7z"/><path id="XMLID_2965_" fill="#594454" d="M52,65.7c-0.3,0-0.5-0.2-0.5-0.5v-1c0-0.3,0.2-0.5,0.5-0.5s0.5,0.2,0.5,0.5v1C52.5,65.5,52.3,65.7,52,65.7z"/><path id="XMLID_2964_" fill="#594454" d="M54,65.7c-0.3,0-0.5-0.2-0.5-0.5v-1c0-0.3,0.2-0.5,0.5-0.5s0.5,0.2,0.5,0.5v1C54.5,65.5,54.3,65.7,54,65.7z"/><path id="XMLID_2963_" fill="#594454" d="M56,65.7c-0.3,0-0.5-0.2-0.5-0.5v-1c0-0.3,0.2-0.5,0.5-0.5s0.5,0.2,0.5,0.5v1C56.5,65.5,56.3,65.7,56,65.7z"/><path id="XMLID_2962_" fill="#594454" d="M58,65.7c-0.3,0-0.5-0.2-0.5-0.5v-1c0-0.3,0.2-0.5,0.5-0.5s0.5,0.2,0.5,0.5v1C58.5,65.5,58.3,65.7,58,65.7z"/><path id="XMLID_2961_" fill="#594454" d="M64,59.7c-0.3,0-0.5-0.2-0.5-0.5v-2c0-0.3,0.2-0.5,0.5-0.5s0.5,0.2,0.5,0.5v2C64.5,59.5,64.3,59.7,64,59.7z"/><path id="XMLID_2960_" fill="#594454" d="M50,45.7c-0.3,0-0.5-0.2-0.5-0.5v-3c0-0.3,0.2-0.5,0.5-0.5s0.5,0.2,0.5,0.5v3C50.5,45.5,50.3,45.7,50,45.7z"/><path id="XMLID_2959_" fill="#594454" d="M10,56.7H7c-0.3,0-0.5-0.2-0.5-0.5s0.2-0.5,0.5-0.5h3c0.3,0,0.5,0.2,0.5,0.5S10.3,56.7,10,56.7z"/><path id="XMLID_2958_" fill="#594454" d="M19,66.7h-3c-0.3,0-0.5-0.2-0.5-0.5s0.2-0.5,0.5-0.5h3c0.3,0,0.5,0.2,0.5,0.5S19.3,66.7,19,66.7z"/><path id="XMLID_2957_" fill="#594454" d="M19.5,74.7h-4c-0.3,0-0.5-0.2-0.5-0.5s0.2-0.5,0.5-0.5h4c0.3,0,0.5,0.2,0.5,0.5S19.8,74.7,19.5,74.7z"/><path id="XMLID_2956_" fill="#594454" d="M19.7,82.7h-4.5c-0.3,0-0.5-0.2-0.5-0.5s0.2-0.5,0.5-0.5h4.5c0.3,0,0.5,0.2,0.5,0.5S20,82.7,19.7,82.7z"/><path id="XMLID_2955_" fill="#594454" d="M10.5,65.7h-4c-0.3,0-0.5-0.2-0.5-0.5s0.2-0.5,0.5-0.5h4c0.3,0,0.5,0.2,0.5,0.5S10.8,65.7,10.5,65.7z"/><path id="XMLID_2954_" fill="#594454" d="M95.5,90.7h-91c-0.3,0-0.5-0.2-0.5-0.5s0.2-0.5,0.5-0.5h91c0.3,0,0.5,0.2,0.5,0.5S95.8,90.7,95.5,90.7z"/><path id="XMLID_2953_" fill="#594454" d="M10.7,78.7H6.2c-0.3,0-0.5-0.2-0.5-0.5s0.2-0.5,0.5-0.5h4.5c0.3,0,0.5,0.2,0.5,0.5S11,78.7,10.7,78.7z"/><path id="XMLID_2952_" fill="#594454" d="M93.5,90.7h-4c-0.1,0-0.3-0.1-0.4-0.2C89,90.5,89,90.4,89,90.2l1-34c0-0.3,0.2-0.5,0.5-0.5h2    c0.3,0,0.5,0.2,0.5,0.5l1,34c0,0.1,0,0.3-0.1,0.4C93.8,90.7,93.6,90.7,93.5,90.7z M90,89.7h3l-1-33h-1L90,89.7z"/><path id="XMLID_2951_" fill="#594454" d="M84.5,90.7h-4c-0.1,0-0.3-0.1-0.4-0.2C80,90.5,80,90.3,80,90.2l1-24c0-0.3,0.2-0.5,0.5-0.5h2    c0.3,0,0.5,0.2,0.5,0.5l1,24c0,0.1,0,0.3-0.1,0.4C84.8,90.7,84.6,90.7,84.5,90.7z M81,89.7h3l-1-23h-1L81,89.7z"/><path id="XMLID_2950_" fill="#594454" d="M92.5,56.7c-0.3,0-0.5-0.2-0.5-0.5v-1.6c0-0.3-0.1-0.5-0.4-0.7l-0.1-0.1l-0.1,0.1c-0.2,0.2-0.4,0.4-0.4,0.7    v1.6c0,0.3-0.2,0.5-0.5,0.5S90,56.4,90,56.2v-1.6c0-0.6,0.3-1.2,0.8-1.5l0.4-0.2c0.2-0.1,0.4-0.1,0.5,0l0.4,0.2    c0.5,0.3,0.8,0.9,0.8,1.5v1.6C93,56.4,92.8,56.7,92.5,56.7z"/><path id="XMLID_2949_" fill="#594454" d="M83.5,66.7c-0.3,0-0.5-0.2-0.5-0.5v-1.6c0-0.3-0.1-0.5-0.4-0.7l-0.1-0.1l-0.1,0.1c-0.2,0.2-0.4,0.4-0.4,0.7    v1.6c0,0.3-0.2,0.5-0.5,0.5S81,66.4,81,66.2v-1.6c0-0.6,0.3-1.2,0.8-1.5l0.4-0.2c0.2-0.1,0.4-0.1,0.5,0l0.4,0.2    c0.5,0.3,0.8,0.9,0.8,1.5v1.6C84,66.4,83.8,66.7,83.5,66.7z"/><path id="XMLID_2948_" fill="#594454" d="M91.5,53.7c-0.3,0-0.5-0.2-0.5-0.5v-1c0-0.3,0.2-0.5,0.5-0.5S92,52,92,52.2v1C92,53.5,91.8,53.7,91.5,53.7z"/><path id="XMLID_2947_" fill="#594454" d="M82.5,63.7c-0.3,0-0.5-0.2-0.5-0.5v-1c0-0.3,0.2-0.5,0.5-0.5S83,62,83,62.2v1C83,63.5,82.8,63.7,82.5,63.7z"/><path id="XMLID_2946_" fill="#594454" d="M93,56.7h-3c-0.3,0-0.5-0.2-0.5-0.5s0.2-0.5,0.5-0.5h3c0.3,0,0.5,0.2,0.5,0.5S93.3,56.7,93,56.7z"/><path id="XMLID_2945_" fill="#594454" d="M84,66.7h-3c-0.3,0-0.5-0.2-0.5-0.5s0.2-0.5,0.5-0.5h3c0.3,0,0.5,0.2,0.5,0.5S84.3,66.7,84,66.7z"/><path id="XMLID_2944_" fill="#594454" d="M84.5,74.7h-4c-0.3,0-0.5-0.2-0.5-0.5s0.2-0.5,0.5-0.5h4c0.3,0,0.5,0.2,0.5,0.5S84.8,74.7,84.5,74.7z"/><path id="XMLID_2943_" fill="#594454" d="M84.7,82.7h-4.5c-0.3,0-0.5-0.2-0.5-0.5s0.2-0.5,0.5-0.5h4.5c0.3,0,0.5,0.2,0.5,0.5S85,82.7,84.7,82.7z"/><path id="XMLID_2942_" fill="#594454" d="M93.5,65.7h-4c-0.3,0-0.5-0.2-0.5-0.5s0.2-0.5,0.5-0.5h4c0.3,0,0.5,0.2,0.5,0.5S93.8,65.7,93.5,65.7z"/><path id="XMLID_2941_" fill="#594454" d="M93.7,78.7h-4.5c-0.3,0-0.5-0.2-0.5-0.5s0.2-0.5,0.5-0.5h4.5c0.3,0,0.5,0.2,0.5,0.5S94,78.7,93.7,78.7z"/><path fill="#594454" d="M54.3 48.7h-8.6c-.3 0-.5-.2-.5-.5s.2-.5.5-.5h8.6c.3 0 .5.2.5.5S54.6 48.7 54.3 48.7zM40.5 69.8H24.7c-.3 0-.5-.2-.5-.5s.2-.5.5-.5h15.8c.3 0 .5.2.5.5S40.8 69.8 40.5 69.8zM75.5 69.8H59.7c-.3 0-.5-.2-.5-.5s.2-.5.5-.5h15.8c.3 0 .5.2.5.5S75.8 69.8 75.5 69.8z"/></svg>